<?xml version="1.0" encoding="UTF-8" standalone="no"?>
<!-- Created with Inkscape (http://www.inkscape.org/) -->

<svg
   xmlns:dc="http://purl.org/dc/elements/1.1/"
   xmlns:cc="http://creativecommons.org/ns#"
   xmlns:rdf="http://www.w3.org/1999/02/22-rdf-syntax-ns#"
   xmlns:svg="http://www.w3.org/2000/svg"
   xmlns="http://www.w3.org/2000/svg"
   xmlns:sodipodi="http://sodipodi.sourceforge.net/DTD/sodipodi-0.dtd"
   xmlns:inkscape="http://www.inkscape.org/namespaces/inkscape"
   width="20"
   height="20"
   viewBox="0 0 5.2916665 5.2916668"
   version="1.1"
   id="svg8"
   inkscape:version="0.92.1 r15371"
   sodipodi:docname="general.svg">
  <defs
     id="defs2" />
  <sodipodi:namedview
     id="base"
     pagecolor="#ffffff"
     bordercolor="#666666"
     borderopacity="1.0"
     inkscape:pageopacity="0.0"
     inkscape:pageshadow="2"
     inkscape:zoom="35.885669"
     inkscape:cx="5.9476568"
     inkscape:cy="9.2356666"
     inkscape:document-units="mm"
     inkscape:current-layer="layer1"
     showgrid="false"
     units="px"
     inkscape:window-width="2560"
     inkscape:window-height="1346"
     inkscape:window-x="-11"
     inkscape:window-y="-11"
     inkscape:window-maximized="1" />
  <metadata
     id="metadata5">
    <rdf:RDF>
      <cc:Work
         rdf:about="">
        <dc:format>image/svg+xml</dc:format>
        <dc:type
           rdf:resource="http://purl.org/dc/dcmitype/StillImage" />
        <dc:title></dc:title>
      </cc:Work>
    </rdf:RDF>
  </metadata>
  <g
     inkscape:label="Layer 1"
     inkscape:groupmode="layer"
     id="layer1"
     transform="translate(0,-291.70832)">
    <g
       id="g4565"
       transform="translate(0.01980974,-0.09366348)">
      <path
         sodipodi:nodetypes="ccccscscsccccccccscsccccccccccccccccsccccccccccccscccccccccccccccsccscccc"
         inkscape:connector-curvature="0"
         id="path4537"
         d="m 1.4089928,296.47724 c -0.034148,-0.0238 -0.05779,-0.0809 -0.050143,-0.12094 0.00331,-0.0173 0.021147,-0.0441 0.039658,-0.0597 l 0.033654,-0.0283 h 1.1772448 c 1.0277735,0 1.1814643,0.003 1.2104751,0.0171 0.040087,0.0207 0.056659,0.049 0.056659,0.0966 0,0.0476 -0.01657,0.0759 -0.056659,0.0966 -0.02901,0.015 -0.1825225,0.0171 -1.2088161,0.0171 -1.0684266,0 -1.1780011,-10e-4 -1.2020746,-0.0186 z m -1.34512733,-0.4536 c -0.01634366,-0.009 -0.03561086,-0.0304 -0.0428163,-0.048 -0.0097364,-0.0236 -0.01233185,-0.48031 -0.01010527,-1.7763 l 0.0029907,-1.74456 0.03192185,-0.0274 0.03192184,-0.0274 H 2.6148515 c 2.7603824,0 2.5830794,-0.004 2.61337,0.0623 0.010356,0.0227 0.013591,0.44264 0.013591,1.75921 0,1.88036 0.00362,1.77567 -0.062257,1.80568 -0.022852,0.0105 -0.6212851,0.0134 -2.5579068,0.0132 -2.16135844,-4e-4 -2.53238541,-0.003 -2.55779166,-0.0166 z m 4.95040933,-1.80331 v -1.59284 H 2.6250369 0.23579903 v 1.59284 1.59282 H 2.6250369 5.0142748 Z m -3.4131973,0.64463 c 0,-0.0619 0.04223,-0.20856 0.081824,-0.28413 0.051424,-0.0982 0.186481,-0.23086 0.2879396,-0.2829 0.072819,-0.0374 0.2014005,-0.0776 0.2479558,-0.0776 0.011779,0 -0.012609,-0.0312 -0.06435,-0.0825 -0.1334306,-0.13212 -0.197455,-0.26758 -0.2088094,-0.44182 -0.013043,-0.20026 0.055305,-0.37836 0.2006301,-0.52279 0.099133,-0.0986 0.1868248,-0.14918 0.3148895,-0.18193 0.1605175,-0.0411 0.3350578,-0.0198 0.4860161,0.0594 0.092295,0.0484 0.2303245,0.18637 0.2786789,0.27868 0.079089,0.15094 0.1004019,0.32549 0.059348,0.48601 -0.032556,0.12727 -0.083729,0.21552 -0.1829168,0.31537 l -0.086157,0.0867 0.078672,0.0141 c 0.1244648,0.0223 0.2482629,0.0904 0.3497872,0.19265 0.050588,0.051 0.1008235,0.11515 0.122586,0.15667 0.039594,0.0756 0.081824,0.22223 0.081824,0.28415 v 0.0379 H 3.5371896 3.4253835 l -0.013898,-0.0755 c -0.033822,-0.18355 -0.1559375,-0.31603 -0.3353401,-0.3638 -0.082808,-0.022 -0.8182498,-0.0224 -0.900513,-3.8e-4 -0.1357381,0.0362 -0.2344435,0.11528 -0.2948582,0.23603 -0.02186,0.0437 -0.042554,0.10579 -0.046936,0.14088 l -0.00784,0.0627 H 1.7135362 1.6010739 Z m 1.1337483,-0.77429 c 0.2331769,-0.062 0.3777241,-0.2846 0.3351092,-0.51589 -0.028317,-0.15368 -0.1175044,-0.26883 -0.2608178,-0.33672 -0.068819,-0.0327 -0.08626,-0.036 -0.1846703,-0.036 -0.1025691,0 -0.1135057,0.003 -0.19465,0.0425 -0.1035493,0.0511 -0.1680494,0.11699 -0.2181606,0.22283 -0.03256,0.0688 -0.036005,0.0863 -0.036005,0.18408 0,0.0978 0.00343,0.11542 0.036005,0.18408 0.044217,0.0933 0.1092463,0.16564 0.187038,0.20799 0.1120038,0.061 0.2248562,0.0768 0.3361515,0.0472 z"
         style="fill:#000000;stroke-width:0.01137732" />
      <g
         transform="translate(0.05584528)"
         id="g4557">
        <rect
           style="opacity:1;fill:#000000;fill-opacity:1;stroke:none;stroke-width:0.16126119;stroke-linecap:round;stroke-linejoin:round;stroke-miterlimit:4;stroke-dasharray:none;stroke-dashoffset:0;stroke-opacity:1;paint-order:fill markers stroke"
           id="rect4539"
           width="0.68514967"
           height="0.45177993"
           x="0.84839547"
           y="295.11023"
           ry="0.1400861" />
        <rect
           ry="0.1400861"
           y="295.11023"
           x="2.7137525"
           height="0.45177993"
           width="0.68514967"
           id="rect4541"
           style="opacity:1;fill:#000000;fill-opacity:1;stroke:none;stroke-width:0.16126119;stroke-linecap:round;stroke-linejoin:round;stroke-miterlimit:4;stroke-dasharray:none;stroke-dashoffset:0;stroke-opacity:1;paint-order:fill markers stroke" />
        <rect
           style="opacity:1;fill:#000000;fill-opacity:1;stroke:none;stroke-width:0.16126119;stroke-linecap:round;stroke-linejoin:round;stroke-miterlimit:4;stroke-dasharray:none;stroke-dashoffset:0;stroke-opacity:1;paint-order:fill markers stroke"
           id="rect4543"
           width="0.68514967"
           height="0.45177993"
           x="1.7810739"
           y="295.11023"
           ry="0.1400861" />
        <rect
           ry="0.1400861"
           y="295.11023"
           x="3.646431"
           height="0.45177993"
           width="0.68514967"
           id="rect4545"
           style="opacity:1;fill:#000000;fill-opacity:1;stroke:none;stroke-width:0.16126119;stroke-linecap:round;stroke-linejoin:round;stroke-miterlimit:4;stroke-dasharray:none;stroke-dashoffset:0;stroke-opacity:1;paint-order:fill markers stroke" />
      </g>
    </g>
  </g>
</svg>
